<svg xmlns="http://www.w3.org/2000/svg" xmlns:xlink="http://www.w3.org/1999/xlink" width="500" zoomAndPan="magnify" viewBox="0 0 375 374.999991" height="500" preserveAspectRatio="xMidYMid meet" version="1.0"><defs><clipPath id="af1e89f5a9"><path d="M 44.554688 82 L 293 82 L 293 330.304688 L 44.554688 330.304688 Z M 44.554688 82 " clip-rule="nonzero"/></clipPath><clipPath id="7a5f965a8c"><path d="M 234 44.554688 L 330.304688 44.554688 L 330.304688 141 L 234 141 Z M 234 44.554688 " clip-rule="nonzero"/></clipPath></defs><g clip-path="url(#af1e89f5a9)"><path fill="#ffffff" d="M 220.132812 82.671875 L 66.390625 236.40625 C 65.066406 237.734375 64.128906 239.398438 63.6875 241.222656 L 45.234375 317.441406 C 44.394531 320.902344 45.410156 324.550781 47.933594 327.066406 C 49.867188 329 52.480469 330.054688 55.152344 330.054688 C 55.953125 330.054688 56.757812 329.964844 57.558594 329.765625 L 133.777344 311.308594 C 135.601562 310.871094 137.265625 309.933594 138.589844 308.609375 L 292.324219 154.863281 Z M 220.132812 82.671875 " fill-opacity="1" fill-rule="nonzero"/></g><g clip-path="url(#7a5f965a8c)"><path fill="#ffffff" d="M 324.203125 91.578125 L 283.421875 50.796875 C 278.914062 46.289062 272.464844 44.207031 265.574219 45.164062 C 259.660156 45.960938 253.90625 48.902344 249.359375 53.449219 L 234.574219 68.234375 L 306.765625 140.425781 L 321.550781 125.640625 C 326.097656 121.09375 329.039062 115.339844 329.835938 109.425781 C 330.765625 102.585938 328.710938 96.085938 324.203125 91.578125 Z M 324.203125 91.578125 " fill-opacity="1" fill-rule="nonzero"/></g></svg>