<svg xmlns="http://www.w3.org/2000/svg" xmlns:xlink="http://www.w3.org/1999/xlink" width="500" zoomAndPan="magnify" viewBox="0 0 375 374.999991" height="500" preserveAspectRatio="xMidYMid meet" version="1.0"><defs><clipPath id="57c21ee744"><path d="M 71.257812 184 L 303.757812 184 L 303.757812 323 L 71.257812 323 Z M 71.257812 184 " clip-rule="nonzero"/></clipPath><clipPath id="afaa3764e4"><path d="M 119 48.511719 L 249 48.511719 L 249 193 L 119 193 Z M 119 48.511719 " clip-rule="nonzero"/></clipPath></defs><g clip-path="url(#57c21ee744)"><path fill="#ffffff" d="M 264.601562 193.957031 C 249.230469 183.015625 230.082031 181.996094 213.566406 190.488281 C 196.515625 199.617188 174.191406 200.011719 156.851562 191.460938 C 138.792969 182.90625 118.042969 186.261719 102.726562 200.140625 C 83.621094 217.457031 71.367188 244.210938 71.367188 274.242188 C 71.367188 326.464844 108.417969 322.894531 154.121094 322.894531 L 220.882812 322.949219 C 266.589844 322.949219 303.644531 326.464844 303.644531 274.242188 C 303.644531 240.359375 288.046875 210.648438 264.601562 193.957031 Z M 264.601562 193.957031 " fill-opacity="1" fill-rule="nonzero"/></g><g clip-path="url(#afaa3764e4)"><path fill="#ffffff" d="M 184.171875 192.683594 C 219.839844 192.683594 248.855469 160.34375 248.855469 120.59375 C 248.855469 80.84375 219.839844 48.507812 184.171875 48.507812 C 148.503906 48.507812 119.488281 80.847656 119.488281 120.59375 C 119.488281 160.34375 148.507812 192.683594 184.171875 192.683594 Z M 184.171875 192.683594 " fill-opacity="1" fill-rule="nonzero"/></g></svg>