<svg xmlns="http://www.w3.org/2000/svg" xmlns:xlink="http://www.w3.org/1999/xlink" width="500" zoomAndPan="magnify" viewBox="0 0 375 374.999991" height="500" preserveAspectRatio="xMidYMid meet" version="1.0"><path fill="#ffffff" d="M 330.21875 179.910156 L 198.511719 48.203125 C 195.574219 45.265625 191.65625 44.285156 187.738281 44.285156 C 183.820312 43.796875 179.90625 45.265625 176.96875 48.203125 L 45.257812 179.910156 C 39.875 185.296875 39.875 193.621094 45.257812 198.515625 L 48.195312 201.453125 C 53.582031 206.839844 61.90625 206.839844 66.800781 201.453125 L 76.105469 192.152344 L 76.105469 331.203125 L 154.933594 331.203125 L 154.933594 242.582031 L 220.542969 242.582031 L 220.542969 331.203125 L 299.371094 331.203125 L 299.371094 193.128906 L 308.1875 201.945312 C 313.570312 207.328125 321.894531 207.328125 326.792969 201.945312 L 329.730469 199.003906 C 335.117188 193.621094 335.117188 184.808594 330.21875 179.910156 Z M 330.21875 179.910156 " fill-opacity="1" fill-rule="nonzero"/></svg>