<svg xmlns="http://www.w3.org/2000/svg" xmlns:xlink="http://www.w3.org/1999/xlink" width="500" zoomAndPan="magnify" viewBox="0 0 375 374.999991" height="500" preserveAspectRatio="xMidYMid meet" version="1.0"><defs><clipPath id="6fb97d17ba"><path d="M 91.253906 60.554688 L 284 60.554688 L 284 314.804688 L 91.253906 314.804688 Z M 91.253906 60.554688 " clip-rule="nonzero"/></clipPath></defs><g clip-path="url(#6fb97d17ba)"><path fill="#ffffff" d="M 282.183594 103.28125 C 282.183594 103.015625 281.832031 102.839844 281.65625 102.621094 L 240.464844 61.78125 C 240.203125 61.527344 239.910156 61.308594 239.589844 61.125 C 239.199219 60.863281 238.777344 60.671875 238.320312 60.554688 L 96.363281 60.554688 C 96.074219 60.554688 95.792969 60.585938 95.507812 60.640625 C 95.226562 60.695312 94.953125 60.78125 94.6875 60.890625 C 94.421875 61 94.171875 61.132812 93.929688 61.292969 C 93.691406 61.453125 93.472656 61.636719 93.269531 61.839844 C 93.066406 62.042969 92.882812 62.261719 92.722656 62.5 C 92.5625 62.742188 92.429688 62.992188 92.320312 63.257812 C 92.210938 63.523438 92.125 63.796875 92.070312 64.078125 C 92.015625 64.363281 91.984375 64.644531 91.984375 64.933594 L 91.984375 310.066406 C 91.984375 310.351562 92.015625 310.636719 92.070312 310.917969 C 92.125 311.203125 92.210938 311.476562 92.320312 311.742188 C 92.429688 312.007812 92.5625 312.257812 92.722656 312.496094 C 92.882812 312.738281 93.066406 312.957031 93.269531 313.160156 C 93.472656 313.363281 93.691406 313.546875 93.929688 313.707031 C 94.171875 313.863281 94.421875 314 94.6875 314.109375 C 94.953125 314.21875 95.226562 314.304688 95.507812 314.359375 C 95.792969 314.414062 96.074219 314.441406 96.363281 314.441406 L 278.636719 314.441406 C 278.925781 314.441406 279.207031 314.414062 279.492188 314.359375 C 279.773438 314.304688 280.046875 314.21875 280.3125 314.109375 C 280.578125 314 280.828125 313.863281 281.066406 313.707031 C 281.308594 313.546875 281.527344 313.363281 281.730469 313.160156 C 281.933594 312.957031 282.117188 312.738281 282.277344 312.496094 C 282.4375 312.257812 282.570312 312.007812 282.679688 311.742188 C 282.789062 311.476562 282.875 311.203125 282.929688 310.917969 C 282.984375 310.636719 283.015625 310.351562 283.015625 310.066406 L 283.015625 105.644531 C 283.054688 105.292969 283.054688 104.941406 283.015625 104.59375 C 282.816406 104.105469 282.539062 103.667969 282.183594 103.28125 Z M 190.609375 112.515625 C 190.609375 112.804688 190.578125 113.085938 190.523438 113.371094 C 190.46875 113.652344 190.382812 113.925781 190.273438 114.191406 C 190.164062 114.457031 190.03125 114.707031 189.871094 114.949219 C 189.710938 115.1875 189.527344 115.40625 189.324219 115.609375 C 189.121094 115.8125 188.902344 115.996094 188.664062 116.15625 C 188.421875 116.316406 188.171875 116.449219 187.90625 116.558594 C 187.640625 116.667969 187.367188 116.753906 187.085938 116.808594 C 186.800781 116.863281 186.519531 116.894531 186.230469 116.894531 L 125.253906 116.457031 C 124.78125 116.335938 124.339844 116.144531 123.929688 115.878906 C 123.523438 115.613281 123.167969 115.285156 122.867188 114.902344 C 122.566406 114.515625 122.335938 114.09375 122.179688 113.632812 C 122.019531 113.171875 121.941406 112.695312 121.941406 112.210938 C 121.941406 111.722656 122.019531 111.246094 122.179688 110.785156 C 122.335938 110.324219 122.566406 109.902344 122.867188 109.515625 C 123.167969 109.132812 123.523438 108.804688 123.929688 108.539062 C 124.339844 108.273438 124.78125 108.082031 125.253906 107.964844 L 186.230469 108.445312 C 186.785156 108.445312 187.320312 108.542969 187.835938 108.746094 C 188.355469 108.949219 188.816406 109.238281 189.222656 109.617188 C 189.628906 109.996094 189.953125 110.433594 190.191406 110.933594 C 190.429688 111.433594 190.570312 111.960938 190.609375 112.515625 Z M 249.570312 209.867188 L 125.429688 209.386719 C 125.105469 209.46875 124.777344 209.511719 124.445312 209.515625 C 124.113281 209.523438 123.785156 209.492188 123.457031 209.421875 C 123.132812 209.355469 122.820312 209.25 122.519531 209.109375 C 122.214844 208.96875 121.933594 208.796875 121.671875 208.589844 C 121.410156 208.386719 121.171875 208.15625 120.964844 207.898438 C 120.753906 207.636719 120.578125 207.359375 120.429688 207.0625 C 120.285156 206.761719 120.175781 206.449219 120.101562 206.125 C 120.023438 205.800781 119.988281 205.472656 119.988281 205.140625 C 119.988281 204.808594 120.023438 204.480469 120.101562 204.15625 C 120.175781 203.832031 120.285156 203.519531 120.429688 203.21875 C 120.578125 202.921875 120.753906 202.644531 120.964844 202.382812 C 121.171875 202.125 121.410156 201.894531 121.671875 201.691406 C 121.933594 201.484375 122.214844 201.3125 122.519531 201.171875 C 122.820312 201.03125 123.132812 200.925781 123.457031 200.859375 C 123.785156 200.789062 124.113281 200.757812 124.445312 200.765625 C 124.777344 200.769531 125.105469 200.8125 125.429688 200.894531 L 249.527344 201.375 C 249.8125 201.375 250.097656 201.402344 250.382812 201.460938 C 250.664062 201.515625 250.9375 201.597656 251.203125 201.710938 C 251.46875 201.820312 251.71875 201.953125 251.957031 202.113281 C 252.199219 202.273438 252.417969 202.453125 252.621094 202.65625 C 252.824219 202.863281 253.007812 203.082031 253.167969 203.320312 C 253.328125 203.558594 253.460938 203.8125 253.570312 204.078125 C 253.679688 204.34375 253.765625 204.617188 253.820312 204.898438 C 253.875 205.179688 253.90625 205.464844 253.90625 205.753906 C 253.871094 206.308594 253.738281 206.835938 253.503906 207.339844 C 253.269531 207.839844 252.949219 208.285156 252.550781 208.664062 C 252.148438 209.046875 251.6875 209.34375 251.175781 209.550781 C 250.660156 209.757812 250.125 209.863281 249.570312 209.867188 Z M 253.949219 236.789062 C 253.949219 237.078125 253.921875 237.359375 253.863281 237.644531 C 253.808594 237.925781 253.726562 238.199219 253.613281 238.464844 C 253.503906 238.730469 253.371094 238.980469 253.210938 239.222656 C 253.050781 239.460938 252.871094 239.679688 252.667969 239.882812 C 252.460938 240.085938 252.242188 240.269531 252.003906 240.429688 C 251.765625 240.589844 251.511719 240.722656 251.246094 240.832031 C 250.980469 240.941406 250.707031 241.027344 250.425781 241.082031 C 250.144531 241.136719 249.859375 241.167969 249.570312 241.167969 L 125.472656 240.683594 C 125.183594 240.683594 124.902344 240.65625 124.617188 240.601562 C 124.335938 240.542969 124.0625 240.460938 123.796875 240.351562 C 123.53125 240.242188 123.28125 240.105469 123.039062 239.945312 C 122.800781 239.789062 122.582031 239.605469 122.378906 239.402344 C 122.175781 239.199219 121.992188 238.976562 121.832031 238.738281 C 121.671875 238.5 121.539062 238.25 121.429688 237.984375 C 121.320312 237.71875 121.234375 237.441406 121.179688 237.160156 C 121.125 236.878906 121.09375 236.59375 121.09375 236.308594 C 121.09375 236.019531 121.125 235.734375 121.179688 235.453125 C 121.234375 235.171875 121.320312 234.898438 121.429688 234.632812 C 121.539062 234.367188 121.671875 234.113281 121.832031 233.875 C 121.992188 233.636719 122.175781 233.414062 122.378906 233.210938 C 122.582031 233.007812 122.800781 232.828125 123.039062 232.667969 C 123.28125 232.507812 123.53125 232.375 123.796875 232.261719 C 124.0625 232.152344 124.335938 232.070312 124.617188 232.015625 C 124.902344 231.957031 125.183594 231.929688 125.472656 231.929688 L 249.570312 232.410156 C 249.851562 232.421875 250.132812 232.457031 250.40625 232.519531 C 250.679688 232.578125 250.949219 232.667969 251.207031 232.78125 C 251.464844 232.894531 251.707031 233.03125 251.941406 233.195312 C 252.171875 233.355469 252.386719 233.535156 252.582031 233.738281 C 252.777344 233.941406 252.953125 234.160156 253.105469 234.398438 C 253.261719 234.632812 253.390625 234.882812 253.496094 235.144531 C 253.601562 235.40625 253.683594 235.675781 253.734375 235.949219 C 253.789062 236.226562 253.816406 236.507812 253.816406 236.789062 Z M 249.570312 178.746094 L 125.472656 178.261719 C 125.183594 178.261719 124.902344 178.234375 124.617188 178.179688 C 124.335938 178.125 124.0625 178.039062 123.796875 177.929688 C 123.53125 177.820312 123.28125 177.6875 123.039062 177.527344 C 122.800781 177.367188 122.582031 177.183594 122.378906 176.980469 C 122.175781 176.777344 121.992188 176.558594 121.832031 176.316406 C 121.671875 176.078125 121.539062 175.828125 121.429688 175.5625 C 121.320312 175.296875 121.234375 175.023438 121.179688 174.742188 C 121.125 174.457031 121.09375 174.171875 121.09375 173.886719 C 121.09375 173.597656 121.125 173.3125 121.179688 173.03125 C 121.234375 172.75 121.320312 172.476562 121.429688 172.210938 C 121.539062 171.945312 121.671875 171.691406 121.832031 171.453125 C 121.992188 171.214844 122.175781 170.996094 122.378906 170.792969 C 122.582031 170.585938 122.800781 170.40625 123.039062 170.246094 C 123.28125 170.085938 123.53125 169.953125 123.796875 169.84375 C 124.0625 169.730469 124.335938 169.648438 124.617188 169.59375 C 124.902344 169.535156 125.183594 169.507812 125.472656 169.507812 L 249.570312 169.992188 C 249.859375 169.992188 250.144531 170.019531 250.425781 170.074219 C 250.707031 170.128906 250.980469 170.214844 251.246094 170.324219 C 251.511719 170.433594 251.765625 170.570312 252.003906 170.726562 C 252.242188 170.886719 252.460938 171.070312 252.667969 171.273438 C 252.871094 171.476562 253.050781 171.695312 253.210938 171.9375 C 253.371094 172.175781 253.503906 172.425781 253.613281 172.691406 C 253.726562 172.957031 253.808594 173.230469 253.863281 173.515625 C 253.921875 173.796875 253.949219 174.082031 253.949219 174.367188 C 253.949219 174.65625 253.921875 174.941406 253.863281 175.222656 C 253.808594 175.503906 253.726562 175.777344 253.613281 176.042969 C 253.503906 176.308594 253.371094 176.5625 253.210938 176.800781 C 253.050781 177.039062 252.871094 177.261719 252.667969 177.464844 C 252.460938 177.667969 252.242188 177.847656 252.003906 178.007812 C 251.765625 178.167969 251.511719 178.300781 251.246094 178.410156 C 250.980469 178.523438 250.707031 178.605469 250.425781 178.660156 C 250.144531 178.71875 249.859375 178.746094 249.570312 178.746094 Z M 125.429688 263.183594 L 249.527344 263.664062 C 249.8125 263.664062 250.097656 263.695312 250.382812 263.75 C 250.664062 263.804688 250.9375 263.890625 251.203125 264 C 251.46875 264.109375 251.71875 264.242188 251.957031 264.402344 C 252.199219 264.5625 252.417969 264.746094 252.621094 264.949219 C 252.824219 265.152344 253.007812 265.371094 253.167969 265.609375 C 253.328125 265.851562 253.460938 266.101562 253.570312 266.367188 C 253.679688 266.632812 253.765625 266.90625 253.820312 267.1875 C 253.875 267.472656 253.90625 267.753906 253.90625 268.042969 C 253.90625 268.332031 253.875 268.617188 253.820312 268.898438 C 253.765625 269.179688 253.679688 269.453125 253.570312 269.71875 C 253.460938 269.984375 253.328125 270.234375 253.167969 270.476562 C 253.007812 270.714844 252.824219 270.933594 252.621094 271.136719 C 252.417969 271.339844 252.199219 271.523438 251.957031 271.683594 C 251.71875 271.84375 251.46875 271.976562 251.203125 272.085938 C 250.9375 272.199219 250.664062 272.28125 250.382812 272.335938 C 250.097656 272.390625 249.8125 272.421875 249.527344 272.421875 L 125.429688 271.9375 C 125.140625 271.9375 124.855469 271.910156 124.574219 271.855469 C 124.292969 271.800781 124.019531 271.714844 123.753906 271.605469 C 123.488281 271.496094 123.234375 271.359375 122.996094 271.203125 C 122.757812 271.042969 122.535156 270.859375 122.332031 270.65625 C 122.128906 270.453125 121.949219 270.234375 121.789062 269.992188 C 121.628906 269.753906 121.496094 269.503906 121.382812 269.238281 C 121.273438 268.972656 121.191406 268.699219 121.136719 268.414062 C 121.078125 268.132812 121.050781 267.847656 121.050781 267.5625 C 121.050781 267.273438 121.078125 266.988281 121.136719 266.707031 C 121.191406 266.425781 121.273438 266.152344 121.386719 265.886719 C 121.496094 265.621094 121.628906 265.367188 121.789062 265.128906 C 121.949219 264.890625 122.128906 264.667969 122.332031 264.464844 C 122.535156 264.261719 122.757812 264.082031 122.996094 263.921875 C 123.234375 263.761719 123.488281 263.628906 123.753906 263.519531 C 124.019531 263.40625 124.292969 263.324219 124.574219 263.269531 C 124.855469 263.210938 125.140625 263.183594 125.429688 263.183594 Z M 249.570312 147.621094 L 125.472656 147.183594 C 125 147.066406 124.558594 146.875 124.148438 146.605469 C 123.742188 146.339844 123.386719 146.015625 123.085938 145.632812 C 122.785156 145.246094 122.554688 144.824219 122.398438 144.363281 C 122.238281 143.902344 122.160156 143.425781 122.160156 142.9375 C 122.160156 142.449219 122.238281 141.976562 122.398438 141.515625 C 122.554688 141.054688 122.785156 140.628906 123.085938 140.246094 C 123.386719 139.859375 123.742188 139.535156 124.148438 139.269531 C 124.558594 139.003906 125 138.8125 125.472656 138.691406 L 249.570312 139.347656 C 249.859375 139.347656 250.144531 139.378906 250.425781 139.433594 C 250.707031 139.488281 250.980469 139.570312 251.246094 139.683594 C 251.511719 139.792969 251.765625 139.925781 252.003906 140.085938 C 252.242188 140.246094 252.460938 140.429688 252.667969 140.632812 C 252.871094 140.835938 253.050781 141.054688 253.210938 141.292969 C 253.371094 141.535156 253.503906 141.785156 253.613281 142.050781 C 253.726562 142.316406 253.808594 142.589844 253.863281 142.871094 C 253.921875 143.152344 253.949219 143.4375 253.949219 143.726562 C 253.886719 144.265625 253.734375 144.773438 253.488281 145.253906 C 253.238281 145.734375 252.910156 146.15625 252.507812 146.515625 C 252.101562 146.875 251.648438 147.148438 251.140625 147.339844 C 250.636719 147.53125 250.113281 147.625 249.570312 147.621094 Z M 241.691406 101.398438 L 241.691406 75.132812 L 268.394531 101.617188 Z M 241.691406 101.398438 " fill-opacity="1" fill-rule="nonzero"/></g></svg>