<svg xmlns="http://www.w3.org/2000/svg" xmlns:xlink="http://www.w3.org/1999/xlink" width="500" zoomAndPan="magnify" viewBox="0 0 375 374.999991" height="500" preserveAspectRatio="xMidYMid meet" version="1.0"><defs><clipPath id="8343ba687b"><path d="M 62.375 62.375 L 312.875 62.375 L 312.875 312.875 L 62.375 312.875 Z M 62.375 62.375 " clip-rule="nonzero"/></clipPath></defs><g clip-path="url(#8343ba687b)"><path fill="#ffffff" d="M 303.234375 160.207031 L 292.832031 160.207031 C 291.660156 160.207031 290.566406 159.34375 290.175781 158.09375 C 287.90625 150.195312 284.777344 142.609375 280.867188 135.570312 C 280.242188 134.476562 280.476562 133.070312 281.261719 132.289062 L 288.6875 124.859375 C 292.285156 121.183594 292.285156 115.316406 288.6875 111.722656 L 263.273438 86.304688 C 260.847656 83.960938 258.347656 83.414062 256.625 83.414062 C 254.90625 83.414062 252.402344 83.960938 249.980469 86.304688 L 242.628906 93.734375 C 241.847656 94.515625 240.4375 94.671875 239.34375 94.046875 C 232.382812 90.136719 224.800781 87.007812 216.746094 84.664062 C 215.570312 84.351562 214.789062 83.335938 214.789062 82.082031 L 214.789062 71.683594 C 214.789062 66.519531 210.566406 62.375 205.40625 62.375 L 169.433594 62.375 C 164.351562 62.375 160.207031 66.519531 160.207031 71.683594 L 160.207031 82.082031 C 160.207031 83.253906 159.265625 84.351562 158.09375 84.664062 C 150.195312 86.929688 142.609375 90.058594 135.492188 94.046875 C 134.398438 94.671875 132.992188 94.515625 132.210938 93.734375 L 125.328125 86.851562 C 121.886719 82.785156 114.144531 83.335938 111.722656 86.304688 L 86.773438 111.328125 C 84.664062 113.050781 83.492188 115.550781 83.492188 118.289062 C 83.492188 120.949219 84.664062 123.527344 86.304688 124.859375 L 93.578125 132.210938 C 94.4375 133.070312 94.59375 134.476562 93.96875 135.570312 C 90.058594 142.609375 86.929688 150.195312 84.585938 158.171875 C 84.273438 159.34375 83.257812 160.207031 82.082031 160.207031 L 71.605469 160.207031 C 66.519531 160.207031 62.375 164.429688 62.375 169.511719 L 62.375 205.484375 C 62.375 210.644531 66.519531 214.789062 71.605469 214.789062 L 82.082031 214.789062 C 83.175781 214.789062 84.273438 215.648438 84.664062 216.824219 C 86.929688 224.800781 90.058594 232.460938 93.96875 239.421875 C 94.59375 240.59375 94.515625 241.847656 93.65625 242.707031 L 86.226562 250.136719 C 82.550781 253.8125 82.550781 259.597656 86.304688 263.273438 L 111.328125 288.296875 C 113.050781 290.332031 115.632812 291.503906 118.289062 291.503906 C 120.949219 291.503906 123.449219 290.332031 124.859375 288.6875 L 132.210938 281.339844 C 133.070312 280.476562 134.476562 280.320312 135.492188 280.945312 C 142.921875 285.011719 150.585938 288.21875 158.015625 290.253906 C 159.265625 290.644531 160.207031 291.738281 160.207031 292.910156 L 160.207031 303.390625 C 160.207031 308.472656 164.351562 312.617188 169.433594 312.617188 L 205.40625 312.617188 C 210.566406 312.617188 214.789062 308.472656 214.789062 303.390625 L 214.789062 292.910156 C 214.789062 291.738281 215.648438 290.644531 216.746094 290.253906 C 224.40625 288.140625 231.992188 285.011719 239.265625 280.945312 C 240.359375 280.320312 241.769531 280.476562 242.628906 281.339844 L 250.449219 289.15625 C 254.046875 292.207031 259.207031 292.207031 263.195312 288.6875 L 289.078125 262.804688 C 292.128906 259.285156 292.128906 254.125 288.6875 250.058594 L 281.261719 242.707031 C 280.398438 241.847656 280.242188 240.515625 280.867188 239.421875 C 284.777344 232.382812 287.90625 224.800781 290.175781 216.902344 C 290.566406 215.726562 291.660156 214.789062 292.832031 214.789062 L 303.234375 214.789062 C 308.394531 214.789062 312.617188 210.644531 312.617188 205.484375 L 312.617188 169.511719 C 312.617188 164.429688 308.394531 160.207031 303.234375 160.207031 Z M 221.28125 234.339844 C 211.582031 241.300781 200.320312 245.054688 188.59375 245.289062 L 187.417969 245.289062 C 163.878906 245.289062 142.21875 230.585938 133.617188 208.691406 C 124.78125 186.089844 131.113281 160.050781 149.414062 143.941406 C 167.476562 127.988281 194.769531 125.25 215.804688 137.136719 C 239.890625 150.664062 251.152344 180.617188 242.003906 206.8125 C 238.09375 217.839844 230.976562 227.300781 221.28125 234.339844 Z M 221.28125 234.339844 " fill-opacity="1" fill-rule="nonzero"/></g></svg>